<svg xmlns="http://www.w3.org/2000/svg" width="1024" height="1024" viewBox="0 0 1024 1024">
<g>
<path d="M 811.64 858.75 C809.04,856.37 768.59,792.68 766.95,788.38 C766.43,787.00 766.27,783.98 766.59,781.68 C767.79,773.27 773.29,752.38 775.46,747.96 C778.20,742.43 777.56,740.13 772.44,736.96 C765.20,732.49 756.61,734.63 751.34,742.23 C748.01,747.03 746.97,752.63 747.71,761.75 C748.26,768.56 748.17,769.00 746.27,769.00 C742.66,769.00 741.67,766.44 741.68,757.20 C741.69,750.36 742.18,747.37 743.99,743.21 C747.71,734.61 756.94,727.98 765.12,728.01 C768.79,728.02 777.66,732.55 779.48,735.33 C781.74,738.77 783.60,739.26 787.25,737.37 C790.89,735.49 797.58,735.83 808.50,738.46 C812.35,739.38 819.00,740.99 823.27,742.03 C827.55,743.07 832.36,744.69 833.96,745.63 C835.56,746.58 839.26,751.10 842.18,755.68 C845.11,760.26 853.94,773.79 861.81,785.75 C883.93,819.38 884.27,820.37 876.07,826.85 C873.35,829.00 868.29,832.40 864.82,834.42 C861.34,836.43 849.98,843.24 839.57,849.54 C819.04,861.97 816.20,862.91 811.64,858.75 ZM 844.50 840.58 C853.30,835.01 863.46,828.73 867.08,826.62 C870.69,824.51 874.14,822.01 874.74,821.05 C876.35,818.46 874.15,814.32 858.40,790.31 C850.76,778.65 842.09,765.25 839.15,760.52 C836.21,755.79 832.83,751.28 831.65,750.51 C830.47,749.74 824.10,747.90 817.50,746.43 C792.39,740.82 789.81,740.82 787.48,746.40 C786.48,748.79 785.26,749.90 783.17,750.32 C781.56,750.64 779.93,751.71 779.53,752.70 C777.91,756.76 772.01,781.72 772.01,784.50 C772.02,788.01 773.65,790.85 791.00,817.50 C798.16,828.50 805.87,840.65 808.14,844.50 C810.41,848.35 813.41,852.73 814.81,854.24 L 817.36 856.99 L 822.93 853.85 C825.99,852.12 835.70,846.15 844.50,840.58 ZM 223.45 236.55 C220.59,233.68 220.24,229.07 222.48,223.71 C223.81,220.51 223.77,219.64 222.06,214.34 C221.03,211.13 218.78,203.41 217.07,197.19 C215.36,190.96 213.18,184.21 212.23,182.19 C210.66,178.84 210.08,178.47 206.02,178.18 C200.56,177.79 198.80,176.48 199.20,173.09 C199.47,170.73 199.96,170.47 204.52,170.21 C212.20,169.76 216.37,171.93 217.92,177.19 C218.61,179.52 218.92,181.17 219.84,182.33 C222.26,185.37 228.89,185.07 257.68,184.91 C295.16,184.69 296.00,184.79 296.00,189.43 C296.00,192.89 287.14,219.63 285.57,220.94 C284.67,221.69 276.31,222.48 262.83,223.11 C234.52,224.42 230.07,224.99 228.41,227.51 C225.58,231.77 227.15,232.06 254.08,232.12 C268.06,232.15 280.48,232.40 281.68,232.68 C284.11,233.24 285.23,235.24 284.36,237.50 C283.87,238.79 279.65,239.00 254.85,239.00 L 225.91 239.00 ZM 530.98 776.69 C510.45,773.96 497.42,770.55 482.49,764.16 C468.00,757.97 457.61,751.70 444.50,741.25 C423.15,724.23 407.10,703.25 396.58,678.63 C385.63,653.00 383.27,639.82 381.93,597.00 C380.74,558.95 381.76,471.28 383.40,470.22 C384.01,469.82 414.20,469.23 450.50,468.91 C513.00,468.35 516.90,468.21 524.00,466.26 C534.48,463.39 534.56,463.35 543.67,456.82 C557.26,447.10 568.25,434.53 573.35,422.87 C581.23,404.89 581.64,379.55 574.42,357.30 C567.52,336.02 545.57,313.37 525.22,306.52 C522.16,305.49 519.86,304.67 517.51,304.02 C507.92,301.36 497.55,301.50 432.00,301.51 L 355.50 301.53 L 346.50 304.30 C319.06,312.74 295.62,331.68 284.28,354.55 C274.15,374.99 272.00,387.92 272.00,428.34 C272.00,449.64 272.24,453.96 273.49,454.99 C274.59,455.90 281.08,456.20 298.09,456.13 C312.02,456.08 321.96,456.44 323.10,457.05 C326.51,458.88 325.32,462.55 318.68,470.72 C315.21,475.00 306.76,485.92 299.91,495.00 C293.06,504.08 281.61,519.08 274.48,528.35 C267.34,537.62 255.28,553.37 247.67,563.35 C231.25,584.91 230.28,586.00 227.51,586.00 C224.68,586.00 222.28,583.37 207.77,564.34 C201.02,555.49 186.49,536.83 175.47,522.87 C164.46,508.92 153.21,494.36 150.47,490.52 C147.74,486.68 141.79,479.06 137.25,473.58 C131.39,466.51 128.08,462.56 128.99,460.33 C129.18,459.85 129.56,459.46 130.16,459.12 C130.37,461.19 134.73,467.82 141.19,475.39 C143.01,477.53 145.40,480.75 146.50,482.53 C149.97,488.18 152.41,491.47 153.73,492.30 C154.43,492.74 155.00,493.67 155.00,494.37 C155.00,495.07 156.91,497.44 159.25,499.65 C161.59,501.86 165.05,505.80 166.94,508.43 C168.83,511.05 171.32,513.55 172.47,513.99 C173.62,514.43 174.63,515.75 174.72,516.93 C174.81,518.11 176.78,521.35 179.11,524.13 C182.41,528.08 183.83,529.07 185.63,528.73 C186.90,528.49 187.74,528.60 187.51,528.99 C186.64,530.39 189.26,537.58 191.85,540.91 C199.39,550.62 202.19,553.97 206.95,558.95 C209.81,561.94 213.12,564.87 214.29,565.46 C215.46,566.04 216.70,567.87 217.04,569.51 C217.77,573.06 222.37,580.62 224.17,581.22 C227.03,582.18 239.88,570.50 247.87,559.68 C250.12,556.64 252.90,553.85 254.05,553.48 C256.04,552.85 260.00,545.53 260.00,542.49 C260.00,541.74 261.27,540.23 262.82,539.12 C264.38,538.02 266.94,535.18 268.52,532.81 C270.10,530.44 272.99,526.86 274.94,524.86 C280.16,519.52 285.06,513.44 286.69,510.28 C287.47,508.75 289.82,505.70 291.90,503.50 C297.54,497.55 300.20,492.63 299.43,489.57 C298.84,487.23 299.06,487.00 301.84,487.00 C305.75,487.00 311.99,480.92 312.02,477.10 C312.03,473.92 312.83,472.65 315.75,471.11 C316.99,470.46 318.00,469.44 318.00,468.85 C318.00,468.25 319.34,466.24 320.97,464.38 C323.82,461.14 324.14,458.07 321.64,457.94 C321.01,457.90 309.71,457.79 296.53,457.69 L 272.56 457.50 L 271.23 455.00 C270.17,453.02 270.00,446.51 270.41,423.50 C271.08,385.94 271.97,377.83 276.51,368.27 C278.43,364.23 280.00,360.56 280.00,360.12 C280.00,359.67 280.88,358.51 281.96,357.53 C283.05,356.55 284.62,353.45 285.47,350.63 C287.12,345.14 287.19,345.03 294.01,336.98 C297.21,333.19 298.50,330.78 298.50,328.58 C298.50,325.91 298.89,325.46 301.47,325.16 C305.43,324.71 313.78,317.69 313.62,314.94 C313.51,313.11 314.17,312.80 319.00,312.44 C326.94,311.84 329.15,311.27 332.19,309.01 C333.69,307.91 337.07,306.28 339.70,305.40 C342.34,304.51 345.18,303.19 346.00,302.47 C349.63,299.26 353.56,298.86 379.00,299.05 C393.02,299.15 429.25,299.30 459.50,299.37 L 514.50 299.50 L 519.50 302.45 C527.15,306.96 534.87,310.45 541.60,312.43 C546.26,313.80 548.11,314.91 549.42,317.13 C551.88,321.30 558.01,327.00 560.03,327.00 C561.13,327.00 561.96,328.05 562.33,329.92 C562.65,331.52 564.28,334.39 565.94,336.28 C567.60,338.17 570.07,342.10 571.41,345.01 C572.76,347.92 574.41,350.63 575.07,351.04 C577.57,352.59 580.96,373.74 581.06,388.50 C581.12,396.20 580.90,403.17 580.59,404.00 C580.27,404.83 579.36,409.25 578.57,413.83 C577.31,421.14 576.43,423.23 571.40,430.83 C568.24,435.60 565.36,439.73 565.01,440.00 C564.65,440.27 564.06,441.30 563.70,442.27 C563.34,443.25 562.19,444.37 561.14,444.77 C560.09,445.17 557.13,447.84 554.57,450.70 C550.05,455.74 545.21,459.00 542.25,459.00 C541.46,459.00 539.61,459.83 538.15,460.83 C536.69,461.84 533.53,463.44 531.13,464.38 C528.72,465.31 525.96,467.07 524.98,468.27 L 523.22 470.45 L 454.64 470.98 C391.48,471.46 385.93,471.64 384.35,473.22 C382.75,474.82 382.64,479.36 382.82,535.22 C383.07,616.04 383.75,629.41 387.78,632.70 C389.86,634.40 390.93,641.38 390.28,649.11 C389.86,654.24 390.22,657.25 391.90,662.61 C394.81,671.85 398.09,678.21 400.24,678.77 C401.30,679.05 402.00,680.18 402.00,681.61 C402.00,683.69 408.65,697.55 411.12,700.61 C411.61,701.22 413.13,701.51 414.51,701.24 C417.20,700.73 417.94,702.66 415.86,704.74 C415.00,705.60 415.11,706.71 416.29,709.19 C417.92,712.60 430.73,728.00 431.95,728.00 C432.32,728.00 435.76,730.81 439.59,734.25 C443.42,737.69 448.19,741.13 450.20,741.91 C452.21,742.68 454.07,744.14 454.33,745.15 C454.59,746.16 455.62,747.30 456.61,747.68 C457.60,748.06 459.47,749.30 460.76,750.44 C462.06,751.57 464.82,753.40 466.92,754.50 C469.01,755.60 473.37,757.90 476.61,759.61 C486.51,764.84 496.31,767.38 506.25,767.30 C512.83,767.25 515.00,767.56 515.00,768.54 C515.00,769.26 514.21,770.03 513.25,770.26 C511.82,770.59 511.96,770.85 514.00,771.69 C518.33,773.47 525.80,775.63 530.98,776.69 ZM 259.00 217.45 C282.20,216.59 280.84,217.29 285.34,203.82 C287.80,196.46 288.73,192.33 288.07,191.67 C286.84,190.44 224.89,190.75 223.61,192.00 C222.45,193.15 227.99,215.85 229.90,217.76 C230.99,218.85 232.78,219.07 236.93,218.64 C239.99,218.33 249.93,217.79 259.00,217.45 ZM 183.34 455.77 C183.72,453.23 184.17,439.10 184.38,422.46 C184.83,385.80 186.08,373.20 190.95,355.84 C198.46,329.09 209.81,308.13 228.42,286.64 C234.35,279.79 252.20,264.00 254.01,264.00 C254.70,264.00 256.97,265.55 259.07,267.44 C263.51,271.45 267.65,272.46 276.68,271.74 C284.86,271.08 289.31,267.84 293.32,259.63 C295.72,254.73 296.24,252.17 296.73,242.86 C297.30,232.01 297.35,231.84 300.40,229.55 C303.78,227.03 318.24,221.10 327.00,218.64 C345.22,213.54 346.10,213.49 430.50,213.61 C499.81,213.71 510.54,213.93 518.00,215.39 C518.35,215.46 518.71,215.52 519.07,215.59 C516.36,215.28 512.97,215.19 510.50,215.42 C507.20,215.72 469.62,216.01 427.00,216.06 C379.12,216.12 346.44,216.56 341.50,217.21 C337.10,217.78 331.71,218.38 329.53,218.53 C327.35,218.69 325.39,219.32 325.19,219.94 C324.74,221.29 315.69,226.00 313.53,226.00 C312.69,226.00 312.00,226.45 312.00,227.00 C312.00,227.55 311.66,227.91 311.25,227.79 C310.84,227.67 307.73,228.84 304.34,230.39 L 298.18 233.19 L 298.17 239.85 C298.17,243.51 297.69,250.10 297.11,254.50 C296.53,258.90 296.11,263.17 296.19,264.00 C296.51,267.81 295.92,269.00 293.69,269.00 C292.42,269.00 289.04,270.12 286.19,271.50 C283.34,272.88 280.14,274.00 279.07,274.00 C278.00,274.00 275.89,274.47 274.38,275.05 C272.60,275.72 270.73,275.76 269.07,275.15 C267.65,274.63 263.19,273.21 259.13,272.00 C250.69,269.46 249.65,269.73 242.75,276.24 C240.55,278.31 238.47,280.02 238.13,280.04 C236.89,280.11 232.36,284.55 230.51,287.50 C229.48,289.15 226.54,292.75 223.97,295.50 C219.47,300.33 216.00,306.00 216.00,308.53 C216.00,309.20 215.28,310.35 214.39,311.09 C211.32,313.64 204.75,324.28 202.80,329.87 C201.72,332.97 200.03,336.40 199.05,337.50 C198.07,338.60 196.95,340.83 196.56,342.44 C196.18,344.06 195.13,346.99 194.23,348.94 C193.33,350.90 192.54,354.30 192.48,356.50 C192.41,358.70 191.53,364.10 190.51,368.50 C188.92,375.37 188.65,381.11 188.58,409.00 C188.50,441.19 188.48,441.54 186.18,445.23 C184.90,447.28 184.16,449.45 184.52,450.04 C185.37,451.40 184.69,454.04 183.34,455.77 ZM 570.41 230.71 C586.60,238.85 603.99,251.30 616.41,263.63 C631.01,278.13 640.27,291.09 649.09,309.39 C665.08,342.57 669.96,376.66 664.45,416.77 C662.84,428.53 661.10,435.76 656.83,448.46 C643.96,486.74 615.19,518.32 576.63,536.50 C551.63,548.29 531.33,552.00 491.86,552.00 C473.04,552.00 470.13,552.21 469.61,553.58 C468.56,556.32 468.95,614.49 470.07,622.56 C471.46,632.54 475.85,645.34 480.51,653.02 C490.29,669.11 507.41,682.29 525.28,687.47 C527.27,688.05 528.98,688.55 530.59,688.99 C527.50,688.29 524.15,687.67 522.03,687.43 C515.22,686.66 508.94,683.52 498.96,675.91 C494.70,672.66 490.27,670.00 489.11,670.00 C487.64,670.00 487.00,669.37 487.00,667.92 C487.00,666.78 485.42,663.47 483.50,660.57 C481.58,657.67 480.00,655.03 480.00,654.70 C480.00,654.37 478.99,653.00 477.75,651.65 C475.25,648.93 472.21,641.11 469.53,630.50 C468.06,624.67 467.70,617.97 467.42,590.50 C467.23,572.35 467.30,556.37 467.57,554.98 C468.46,550.40 471.23,550.01 502.91,550.03 C519.04,550.04 532.74,549.65 533.37,549.16 C533.99,548.66 537.65,547.71 541.50,547.03 C550.21,545.49 553.00,544.43 553.00,542.66 C553.00,541.70 554.81,541.11 558.96,540.74 C562.75,540.39 567.17,539.07 571.12,537.10 C574.53,535.39 577.76,534.00 578.30,534.00 C578.84,534.00 582.93,531.60 587.39,528.68 C591.85,525.75 597.62,522.05 600.20,520.45 C602.79,518.86 605.45,516.53 606.12,515.28 C606.79,514.02 607.78,513.00 608.32,513.00 C610.59,513.00 618.11,506.22 619.68,502.75 C620.66,500.59 622.09,499.00 623.06,499.00 C625.11,499.00 630.14,494.54 632.63,490.50 C633.65,488.85 636.45,484.88 638.86,481.69 C643.27,475.83 647.00,467.71 647.00,463.94 C647.00,462.82 648.04,460.87 649.32,459.59 C650.59,458.32 652.64,454.40 653.88,450.89 C655.12,447.38 656.74,443.15 657.48,441.50 C659.55,436.88 660.85,431.14 661.47,423.83 C661.78,420.17 662.93,415.16 664.01,412.71 C665.85,408.56 665.92,407.06 665.13,391.32 C664.66,382.00 663.76,373.42 663.13,372.25 C662.50,371.07 661.59,363.45 661.10,355.31 C660.44,344.38 659.62,338.80 657.97,334.00 C655.35,326.40 651.33,319.05 648.79,317.19 C647.74,316.43 647.00,314.61 647.00,312.81 C647.00,309.84 640.24,295.16 637.38,291.91 C636.60,291.03 634.73,287.88 633.20,284.91 C631.68,281.93 628.41,277.48 625.93,275.00 C618.31,267.38 603.17,253.67 601.29,252.69 C600.30,252.17 597.38,249.56 594.80,246.88 C591.16,243.11 589.39,242.00 587.00,242.00 C585.10,242.00 583.02,241.11 581.58,239.68 C580.31,238.40 577.51,236.32 575.38,235.05 C571.43,232.71 559.60,229.00 556.09,229.00 C555.02,229.00 552.88,227.94 551.33,226.64 C549.77,225.34 546.70,223.68 544.50,222.94 C542.30,222.20 540.05,221.08 539.50,220.46 C538.86,219.74 537.18,218.99 535.02,218.40 C545.30,220.79 562.02,226.49 570.41,230.71 ZM 579.51 777.59 C619.80,777.43 673.20,776.81 678.50,776.19 C690.54,774.80 699.51,772.64 701.51,770.64 C702.41,769.74 704.05,769.00 705.15,769.00 C707.67,769.00 721.76,764.26 724.66,762.44 C726.57,761.23 726.82,760.14 726.90,752.63 C726.98,745.24 727.38,743.42 730.12,738.08 C731.84,734.72 735.44,729.76 738.13,727.06 C740.88,724.29 743.28,720.85 743.61,719.19 C744.15,716.50 744.76,716.11 750.35,714.86 C758.76,713.00 772.64,713.31 778.37,715.50 C780.88,716.46 783.53,717.01 784.28,716.72 C785.16,716.38 785.61,716.92 785.57,718.25 C785.53,719.38 786.06,720.49 786.75,720.73 C787.54,721.01 788.00,720.21 788.00,718.55 C788.00,716.93 788.67,715.73 789.75,715.40 C793.73,714.19 798.66,711.32 801.57,708.50 C805.06,705.12 811.00,696.48 811.00,694.78 C811.00,694.17 811.69,692.96 812.53,692.08 C816.78,687.69 819.10,684.07 821.09,678.76 C822.29,675.55 824.07,672.36 825.05,671.67 C826.15,670.91 827.75,668.20 829.27,664.88 C827.18,670.09 824.95,675.15 822.85,679.31 C815.44,694.05 795.82,719.08 788.70,722.89 C786.43,724.11 785.85,723.99 782.84,721.72 C781.00,720.33 777.76,718.48 775.63,717.60 C768.28,714.57 753.21,716.12 746.06,720.64 C735.39,727.39 729.00,741.31 729.00,757.79 C729.00,760.31 728.35,762.28 727.16,763.36 C724.69,765.59 714.33,769.60 704.50,772.12 C683.96,777.40 686.19,777.28 610.50,777.52 C599.52,777.56 589.00,777.58 579.51,777.59 ZM 791.11 772.10 C782.66,764.21 792.94,749.99 803.79,754.55 C810.65,757.44 812.54,766.74 807.36,772.15 C805.04,774.57 803.84,775.00 799.42,775.00 C795.05,775.00 793.71,774.53 791.11,772.10 ZM 801.61 407.11 C800.58,407.24 799.59,407.92 799.10,409.18 C798.61,410.46 797.13,413.08 795.81,415.00 C794.50,416.92 792.83,419.97 792.09,421.76 C791.35,423.55 788.58,426.61 785.92,428.56 C781.46,431.83 778.00,436.62 778.00,439.52 C778.00,440.18 775.93,441.80 773.39,443.11 C769.57,445.09 768.53,446.27 767.30,450.00 C766.42,452.64 764.09,456.17 761.65,458.54 C759.37,460.77 755.70,465.26 753.50,468.53 C751.30,471.79 747.44,476.72 744.93,479.48 C742.41,482.24 739.29,486.08 737.98,488.00 C736.68,489.92 733.38,493.98 730.65,497.00 C727.92,500.02 725.08,503.95 724.34,505.73 C723.60,507.51 721.90,509.68 720.56,510.55 C719.23,511.43 716.19,514.70 713.82,517.82 C711.45,520.94 708.93,523.86 708.24,524.31 C707.54,524.75 706.53,525.65 706.00,526.31 C700.04,533.63 699.89,533.92 700.96,535.92 C700.96,535.93 700.97,535.95 700.98,535.97 C700.66,535.52 700.39,535.11 700.23,534.66 C699.15,531.58 703.32,526.65 730.42,493.88 C745.87,475.19 759.34,458.25 788.32,421.10 C793.73,414.17 798.82,408.12 799.65,407.66 C800.29,407.30 800.93,407.11 801.61,407.11 ZM 900.38 527.91 C899.11,526.23 897.39,524.30 895.22,522.11 C888.48,515.30 879.00,503.05 879.00,501.15 C879.00,500.60 877.88,499.26 876.50,498.18 C875.12,497.10 874.00,495.71 874.00,495.10 C874.00,494.49 871.30,491.22 868.00,487.84 C864.70,484.46 862.00,481.40 862.00,481.06 C862.00,480.71 860.21,478.42 858.03,475.96 C855.84,473.51 854.04,471.16 854.03,470.75 C854.01,470.34 853.09,470.00 851.97,470.00 C850.85,470.00 849.69,469.21 849.38,468.25 C848.13,464.32 844.53,458.29 841.47,455.00 C839.68,453.08 837.29,449.70 836.16,447.50 C835.03,445.30 830.96,440.46 827.11,436.74 C823.27,433.02 819.87,429.15 819.55,428.15 C819.23,427.14 815.85,423.08 812.05,419.12 C808.24,415.16 804.99,410.93 804.81,409.71 C804.70,408.89 804.34,408.25 803.86,407.82 C806.12,409.11 809.04,412.30 813.57,418.10 C817.93,423.69 828.90,437.31 837.95,448.38 C854.13,468.17 870.15,488.14 879.00,499.56 C890.88,514.90 897.27,523.16 900.38,527.91 ZM 757.74 588.56 C757.76,604.38 757.41,609.31 756.37,613.00 C755.51,616.03 754.46,620.53 754.03,623.00 C752.56,631.53 750.54,638.50 749.02,640.34 C748.19,641.36 746.29,643.59 744.82,645.32 C743.34,647.04 741.16,650.52 739.98,653.04 C738.58,656.04 736.64,658.28 734.41,659.48 C732.54,660.49 731.00,661.66 731.00,662.08 C731.00,662.50 728.26,665.58 724.92,668.92 C719.62,674.22 717.06,675.64 713.75,675.12 C713.34,675.05 712.99,675.56 712.97,676.25 C712.92,678.80 703.42,684.02 696.00,685.57 C693.95,686.00 691.89,686.49 690.25,686.93 C716.65,676.66 735.23,660.62 746.35,638.48 C751.31,628.62 753.77,620.38 756.07,605.99 C757.06,599.81 757.55,595.36 757.74,588.56 ZM 231.03 256.72 C227.04,254.70 225.39,250.89 226.91,247.22 C229.20,241.68 235.78,240.70 240.03,245.27 C242.81,248.25 242.48,251.68 239.08,255.08 C235.84,258.31 234.66,258.56 231.03,256.72 ZM 270.32 256.99 C267.70,255.94 266.00,253.05 266.00,249.64 C266.00,246.51 270.28,243.00 274.10,243.00 C280.54,243.00 283.48,251.90 278.37,255.93 C275.54,258.15 273.77,258.38 270.32,256.99 ZM 841.43 609.83 L 841.16 582.24 C840.98,562.85 841.13,545.19 841.50,543.00 C842.11,539.37 842.53,538.93 846.34,537.90 C850.07,536.89 867.68,536.65 892.22,537.29 C893.40,537.32 894.48,537.31 895.47,537.27 C891.40,537.55 884.56,537.68 872.74,537.81 C857.79,537.98 845.05,538.54 844.43,539.05 C843.67,539.69 843.09,551.32 842.61,575.74 C842.33,589.99 841.97,600.92 841.43,609.83 ZM 803.44 767.78 C805.67,764.60 805.37,762.29 802.51,760.41 C799.30,758.31 795.29,759.27 793.82,762.49 C791.20,768.25 799.80,772.98 803.44,767.78 ZM 832.23 657.10 C832.62,655.83 832.94,654.61 833.16,653.50 C833.71,650.75 834.52,644.22 834.96,639.00 C835.57,631.74 836.44,628.08 838.63,623.50 L 840.72 619.13 C839.79,629.04 838.46,636.31 836.46,643.87 C835.45,647.70 833.96,652.31 832.23,657.10 ZM 686.35 688.30 C684.90,688.94 681.91,690.07 679.01,691.08 C673.21,693.08 671.44,693.22 658.58,692.64 C652.53,692.37 633.11,692.10 611.33,691.96 C660.16,692.00 676.55,691.21 686.35,688.30 ZM 140.51 457.51 C144.64,457.34 149.99,457.28 156.71,457.20 C169.72,457.05 180.84,456.64 182.90,456.27 C182.58,456.60 182.22,456.88 181.84,457.09 C178.80,458.71 156.07,459.34 146.07,458.08 C143.69,457.78 141.90,457.59 140.51,457.51 ZM 714.49 538.67 C714.71,538.65 714.93,538.63 715.16,538.61 C738.70,536.46 753.46,537.21 756.40,540.65 C755.20,539.53 750.75,539.40 729.57,539.00 C723.14,538.88 718.24,538.78 714.49,538.67 ZM 271.05 252.56 C272.60,254.43 274.92,254.09 276.38,251.77 C277.21,250.44 277.08,249.66 275.81,248.38 C272.81,245.39 268.35,249.30 271.05,252.56 ZM 235.77 250.19 C235.99,249.52 235.25,249.00 234.08,249.00 C232.01,249.00 231.38,250.05 232.69,251.35 C233.61,252.28 235.28,251.65 235.77,250.19 ZM 131.28 458.64 C132.61,458.20 134.51,457.91 137.05,457.72 C136.46,457.87 135.98,458.10 135.51,458.40 C134.06,459.35 132.85,459.49 131.69,458.85 C131.54,458.77 131.41,458.70 131.28,458.64 ZM 752.00 643.00 C752.00,643.55 751.55,644.00 751.00,644.00 C750.45,644.00 750.00,643.55 750.00,643.00 C750.00,642.45 750.45,642.00 751.00,642.00 C751.55,642.00 752.00,642.45 752.00,643.00 ZM 553.84 691.61 C541.36,691.37 537.91,690.90 534.23,689.89 C534.18,689.88 534.14,689.87 534.09,689.85 C538.76,690.87 543.70,691.36 553.84,691.61 ZM 523.96 216.50 C526.46,216.94 528.56,217.28 529.50,217.38 C529.77,217.41 530.05,217.45 530.35,217.49 C530.06,217.46 529.78,217.42 529.50,217.40 C528.31,217.28 526.12,216.92 523.96,216.50 ZM 898.40 536.99 C899.62,536.78 900.59,536.48 901.32,536.07 C900.80,536.47 899.98,536.76 898.40,536.99 ZM 701.49 536.66 C701.84,537.03 702.28,537.35 702.82,537.62 C702.16,537.37 701.80,537.06 701.49,536.66 ZM 756.75 541.19 C756.80,541.29 756.84,541.39 756.87,541.50 C756.92,541.70 756.98,542.35 757.03,543.39 C756.97,542.37 756.91,541.72 756.85,541.50 C756.82,541.39 756.79,541.28 756.75,541.19 Z" fill="rgba(86,38,114,1)"/>
<path d="M 535.00 777.33 C530.80,777.02 519.68,774.03 514.00,771.69 C511.96,770.85 511.82,770.59 513.25,770.26 C514.21,770.03 515.00,769.26 515.00,768.54 C515.00,767.56 512.83,767.25 506.25,767.30 C496.31,767.38 486.51,764.84 476.61,759.61 C473.37,757.90 469.01,755.60 466.92,754.50 C464.82,753.40 462.06,751.57 460.76,750.44 C459.47,749.30 457.60,748.06 456.61,747.68 C455.62,747.30 454.59,746.16 454.33,745.15 C454.07,744.14 452.21,742.68 450.20,741.91 C448.19,741.13 443.42,737.69 439.59,734.25 C435.76,730.81 432.32,728.00 431.95,728.00 C430.73,728.00 417.92,712.60 416.29,709.19 C415.11,706.71 415.00,705.60 415.86,704.74 C417.94,702.66 417.20,700.73 414.51,701.24 C413.13,701.51 411.61,701.22 411.12,700.61 C408.65,697.55 402.00,683.69 402.00,681.61 C402.00,680.18 401.30,679.05 400.24,678.77 C398.09,678.21 394.81,671.85 391.90,662.61 C390.22,657.25 389.86,654.24 390.28,649.11 C390.93,641.38 389.86,634.40 387.78,632.70 C383.75,629.41 383.07,616.04 382.82,535.22 C382.64,479.36 382.75,474.82 384.35,473.22 C385.93,471.64 391.48,471.46 454.64,470.98 L 523.22 470.45 L 524.98 468.27 C525.96,467.07 528.72,465.31 531.13,464.38 C533.53,463.44 536.69,461.84 538.15,460.83 C539.61,459.83 541.46,459.00 542.25,459.00 C545.21,459.00 550.05,455.74 554.57,450.70 C557.13,447.84 560.09,445.17 561.14,444.77 C562.19,444.37 563.34,443.25 563.70,442.27 C564.06,441.30 564.65,440.27 565.01,440.00 C565.36,439.73 568.24,435.60 571.40,430.83 C576.43,423.23 577.31,421.14 578.57,413.83 C579.36,409.25 580.27,404.83 580.59,404.00 C580.90,403.17 581.12,396.20 581.06,388.50 C580.96,373.74 577.57,352.59 575.07,351.04 C574.41,350.63 572.76,347.92 571.41,345.01 C570.07,342.10 567.60,338.17 565.94,336.28 C564.28,334.39 562.65,331.52 562.33,329.92 C561.96,328.05 561.13,327.00 560.03,327.00 C558.01,327.00 551.88,321.30 549.42,317.13 C548.11,314.91 546.26,313.80 541.60,312.43 C534.87,310.45 527.15,306.96 519.50,302.45 L 514.50 299.50 L 459.50 299.37 C429.25,299.30 393.02,299.15 379.00,299.05 C353.56,298.86 349.63,299.26 346.00,302.47 C345.18,303.19 342.34,304.51 339.70,305.40 C337.07,306.28 333.69,307.91 332.19,309.01 C329.15,311.27 326.94,311.84 319.00,312.44 C314.17,312.80 313.51,313.11 313.62,314.94 C313.78,317.69 305.43,324.71 301.47,325.16 C298.89,325.46 298.50,325.91 298.50,328.58 C298.50,330.78 297.21,333.19 294.01,336.98 C287.19,345.03 287.12,345.14 285.47,350.63 C284.62,353.45 283.05,356.55 281.96,357.53 C280.88,358.51 280.00,359.67 280.00,360.12 C280.00,360.56 278.43,364.23 276.51,368.27 C271.97,377.83 271.08,385.94 270.41,423.50 C270.00,446.51 270.17,453.02 271.23,455.00 L 272.56 457.50 L 296.53 457.69 C309.71,457.79 321.01,457.90 321.64,457.94 C324.14,458.07 323.82,461.14 320.97,464.38 C319.34,466.24 318.00,468.25 318.00,468.85 C318.00,469.44 316.99,470.46 315.75,471.11 C312.83,472.65 312.03,473.92 312.02,477.10 C311.99,480.92 305.75,487.00 301.84,487.00 C299.06,487.00 298.84,487.23 299.43,489.57 C300.20,492.63 297.54,497.55 291.90,503.50 C289.82,505.70 287.47,508.75 286.69,510.28 C285.06,513.44 280.16,519.52 274.94,524.86 C272.99,526.86 270.10,530.44 268.52,532.81 C266.94,535.18 264.38,538.02 262.82,539.12 C261.27,540.23 260.00,541.74 260.00,542.49 C260.00,545.53 256.04,552.85 254.05,553.48 C252.90,553.85 250.12,556.64 247.87,559.68 C239.88,570.50 227.03,582.18 224.17,581.22 C222.37,580.62 217.77,573.06 217.04,569.51 C216.70,567.87 215.46,566.04 214.29,565.46 C213.12,564.87 209.81,561.94 206.95,558.95 C202.19,553.97 199.39,550.62 191.85,540.91 C189.26,537.58 186.64,530.39 187.51,528.99 C187.74,528.60 186.90,528.49 185.63,528.73 C183.83,529.07 182.41,528.08 179.11,524.13 C176.78,521.35 174.81,518.11 174.72,516.93 C174.63,515.75 173.62,514.43 172.47,513.99 C171.32,513.55 168.83,511.05 166.94,508.43 C165.05,505.80 161.59,501.86 159.25,499.65 C156.91,497.44 155.00,495.07 155.00,494.37 C155.00,493.67 154.43,492.74 153.73,492.30 C152.41,491.47 149.97,488.18 146.50,482.53 C145.40,480.75 143.01,477.53 141.19,475.39 C132.38,465.05 127.46,456.48 131.69,458.85 C132.85,459.49 134.06,459.35 135.51,458.40 C137.24,457.27 139.19,457.21 146.07,458.08 C156.07,459.34 178.80,458.71 181.84,457.09 C184.10,455.87 185.64,451.84 184.52,450.04 C184.16,449.45 184.90,447.28 186.18,445.23 C188.48,441.54 188.50,441.19 188.58,409.00 C188.65,381.11 188.92,375.37 190.51,368.50 C191.53,364.10 192.41,358.70 192.48,356.50 C192.54,354.30 193.33,350.90 194.23,348.94 C195.13,346.99 196.18,344.06 196.56,342.44 C196.95,340.83 198.07,338.60 199.05,337.50 C200.03,336.40 201.72,332.97 202.80,329.87 C204.75,324.28 211.32,313.64 214.39,311.09 C215.28,310.35 216.00,309.20 216.00,308.53 C216.00,306.00 219.47,300.33 223.97,295.50 C226.54,292.75 229.48,289.15 230.51,287.50 C232.36,284.55 236.89,280.11 238.13,280.04 C238.47,280.02 240.55,278.31 242.75,276.24 C249.65,269.73 250.69,269.46 259.13,272.00 C263.19,273.21 267.65,274.63 269.07,275.15 C270.73,275.76 272.60,275.72 274.38,275.05 C275.89,274.47 278.00,274.00 279.07,274.00 C280.14,274.00 283.34,272.88 286.19,271.50 C289.04,270.12 292.42,269.00 293.69,269.00 C295.92,269.00 296.51,267.81 296.19,264.00 C296.11,263.17 296.53,258.90 297.11,254.50 C297.69,250.10 298.17,243.51 298.17,239.85 L 298.18 233.19 L 304.34 230.39 C307.73,228.84 310.84,227.67 311.25,227.79 C311.66,227.91 312.00,227.55 312.00,227.00 C312.00,226.45 312.69,226.00 313.53,226.00 C315.69,226.00 324.74,221.29 325.19,219.94 C325.39,219.32 327.35,218.69 329.53,218.53 C331.71,218.38 337.10,217.78 341.50,217.21 C346.44,216.56 379.12,216.12 427.00,216.06 C469.62,216.01 507.20,215.72 510.50,215.42 C513.80,215.12 518.75,215.37 521.50,215.99 C524.25,216.60 527.85,217.23 529.50,217.40 C533.97,217.84 538.37,219.19 539.50,220.46 C540.05,221.08 542.30,222.20 544.50,222.94 C546.70,223.68 549.77,225.34 551.33,226.64 C552.88,227.94 555.02,229.00 556.09,229.00 C559.60,229.00 571.43,232.71 575.38,235.05 C577.51,236.32 580.31,238.40 581.58,239.68 C583.02,241.11 585.10,242.00 587.00,242.00 C589.39,242.00 591.16,243.11 594.80,246.88 C597.38,249.56 600.30,252.17 601.29,252.69 C603.17,253.67 618.31,267.38 625.93,275.00 C628.41,277.48 631.68,281.93 633.20,284.91 C634.73,287.88 636.60,291.03 637.38,291.91 C640.24,295.16 647.00,309.84 647.00,312.81 C647.00,314.61 647.74,316.43 648.79,317.19 C651.33,319.05 655.35,326.40 657.97,334.00 C659.62,338.80 660.44,344.38 661.10,355.31 C661.59,363.45 662.50,371.07 663.13,372.25 C663.76,373.42 664.66,382.00 665.13,391.32 C665.92,407.06 665.85,408.56 664.01,412.71 C662.93,415.16 661.78,420.17 661.47,423.83 C660.85,431.14 659.55,436.88 657.48,441.50 C656.74,443.15 655.12,447.38 653.88,450.89 C652.64,454.40 650.59,458.32 649.32,459.59 C648.04,460.87 647.00,462.82 647.00,463.94 C647.00,467.71 643.27,475.83 638.86,481.69 C636.45,484.88 633.65,488.85 632.63,490.50 C630.14,494.54 625.11,499.00 623.06,499.00 C622.09,499.00 620.66,500.59 619.68,502.75 C618.11,506.22 610.59,513.00 608.32,513.00 C607.78,513.00 606.79,514.02 606.12,515.28 C605.45,516.53 602.79,518.86 600.20,520.45 C597.62,522.05 591.85,525.75 587.39,528.68 C582.93,531.60 578.84,534.00 578.30,534.00 C577.76,534.00 574.53,535.39 571.12,537.10 C567.17,539.07 562.75,540.39 558.96,540.74 C554.81,541.11 553.00,541.70 553.00,542.66 C553.00,544.43 550.21,545.49 541.50,547.03 C537.65,547.71 533.99,548.66 533.37,549.16 C532.74,549.65 519.04,550.04 502.91,550.03 C471.23,550.01 468.46,550.40 467.57,554.98 C467.30,556.37 467.23,572.35 467.42,590.50 C467.70,617.97 468.06,624.67 469.53,630.50 C472.21,641.11 475.25,648.93 477.75,651.65 C478.99,653.00 480.00,654.37 480.00,654.70 C480.00,655.03 481.58,657.67 483.50,660.57 C485.42,663.47 487.00,666.78 487.00,667.92 C487.00,669.37 487.64,670.00 489.11,670.00 C490.27,670.00 494.70,672.66 498.96,675.91 C508.94,683.52 515.22,686.66 522.03,687.43 C525.04,687.77 530.53,688.88 534.23,689.89 C540.33,691.56 545.78,691.75 592.73,691.87 C621.20,691.95 650.84,692.30 658.58,692.64 C671.44,693.22 673.21,693.08 679.01,691.08 C682.50,689.87 686.11,688.48 687.03,687.98 C687.95,687.49 691.99,686.40 696.00,685.57 C703.42,684.02 712.92,678.80 712.97,676.25 C712.99,675.56 713.34,675.05 713.75,675.12 C717.06,675.64 719.62,674.22 724.92,668.92 C728.26,665.58 731.00,662.50 731.00,662.08 C731.00,661.66 732.54,660.49 734.41,659.48 C736.64,658.28 738.58,656.04 739.98,653.04 C741.16,650.52 743.34,647.04 744.82,645.32 C746.29,643.59 748.19,641.36 749.02,640.34 C750.54,638.50 752.56,631.53 754.03,623.00 C754.46,620.53 755.51,616.03 756.37,613.00 C757.66,608.45 757.88,602.00 757.67,575.50 C757.53,557.90 757.17,542.60 756.87,541.50 C755.71,537.35 740.54,536.30 715.16,538.61 C707.05,539.35 702.31,538.45 700.96,535.92 C699.89,533.92 700.04,533.63 706.00,526.31 C706.53,525.65 707.54,524.75 708.24,524.31 C708.93,523.86 711.45,520.94 713.82,517.82 C716.19,514.70 719.23,511.43 720.56,510.55 C721.90,509.68 723.60,507.51 724.34,505.73 C725.08,503.95 727.92,500.02 730.65,497.00 C733.38,493.98 736.68,489.92 737.98,488.00 C739.29,486.08 742.41,482.24 744.93,479.48 C747.44,476.72 751.30,471.79 753.50,468.53 C755.70,465.26 759.37,460.77 761.65,458.54 C764.09,456.17 766.42,452.64 767.30,450.00 C768.53,446.27 769.57,445.09 773.39,443.11 C775.93,441.80 778.00,440.18 778.00,439.52 C778.00,436.62 781.46,431.83 785.92,428.56 C788.58,426.61 791.35,423.55 792.09,421.76 C792.83,419.97 794.50,416.92 795.81,415.00 C797.13,413.08 798.61,410.46 799.10,409.18 C800.29,406.14 804.36,406.51 804.81,409.71 C804.99,410.93 808.24,415.16 812.05,419.12 C815.85,423.08 819.23,427.14 819.55,428.15 C819.87,429.15 823.27,433.02 827.11,436.74 C830.96,440.46 835.03,445.30 836.16,447.50 C837.29,449.70 839.68,453.08 841.47,455.00 C844.53,458.29 848.13,464.32 849.38,468.25 C849.69,469.21 850.85,470.00 851.97,470.00 C853.09,470.00 854.01,470.34 854.03,470.75 C854.04,471.16 855.84,473.51 858.03,475.96 C860.21,478.42 862.00,480.71 862.00,481.06 C862.00,481.40 864.70,484.46 868.00,487.84 C871.30,491.22 874.00,494.49 874.00,495.10 C874.00,495.71 875.12,497.10 876.50,498.18 C877.88,499.26 879.00,500.60 879.00,501.15 C879.00,503.05 888.48,515.30 895.22,522.11 C906.40,533.41 905.57,537.63 892.22,537.29 C867.68,536.65 850.07,536.89 846.34,537.90 C842.53,538.93 842.11,539.37 841.50,543.00 C841.13,545.19 840.98,562.85 841.16,582.24 L 841.50 617.50 L 838.63 623.50 C836.44,628.08 835.57,631.74 834.96,639.00 C834.52,644.22 833.71,650.75 833.16,653.50 C831.87,659.92 827.35,670.07 825.05,671.67 C824.07,672.36 822.29,675.55 821.09,678.76 C819.10,684.07 816.78,687.69 812.53,692.08 C811.69,692.96 811.00,694.17 811.00,694.78 C811.00,696.48 805.06,705.12 801.57,708.50 C798.66,711.32 793.73,714.19 789.75,715.40 C788.67,715.73 788.00,716.93 788.00,718.55 C788.00,720.21 787.54,721.01 786.75,720.73 C786.06,720.49 785.53,719.38 785.57,718.25 C785.61,716.92 785.16,716.38 784.28,716.72 C783.53,717.01 780.88,716.46 778.37,715.50 C772.64,713.31 758.76,713.00 750.35,714.86 C744.76,716.11 744.15,716.50 743.61,719.19 C743.28,720.85 740.88,724.29 738.13,727.06 C735.44,729.76 731.84,734.72 730.12,738.08 C727.38,743.42 726.98,745.24 726.90,752.63 C726.82,760.14 726.57,761.23 724.66,762.44 C721.76,764.26 707.67,769.00 705.15,769.00 C704.05,769.00 702.41,769.74 701.51,770.64 C699.51,772.64 690.54,774.80 678.50,776.19 C670.27,777.15 545.76,778.13 535.00,777.33 ZM 752.00 643.00 C752.00,642.45 751.55,642.00 751.00,642.00 C750.45,642.00 750.00,642.45 750.00,643.00 C750.00,643.55 750.45,644.00 751.00,644.00 C751.55,644.00 752.00,643.55 752.00,643.00 ZM 271.05 252.56 C268.35,249.30 272.81,245.39 275.81,248.38 C277.08,249.66 277.21,250.44 276.38,251.77 C274.92,254.09 272.60,254.43 271.05,252.56 ZM 275.00 250.50 C275.00,249.68 274.33,249.00 273.50,249.00 C272.67,249.00 272.00,249.68 272.00,250.50 C272.00,251.32 272.67,252.00 273.50,252.00 C274.33,252.00 275.00,251.32 275.00,250.50 Z" fill="rgba(102,54,137,1)"/>
</g>
</svg>